HIERARCHY
ROOT Hips
{
	OFFSET 0.000000 0.000000 0.000000 
	CHANNELS 6 Xposition Yposition Zposition Yrotation Zrotation Xrotation 
	JOINT Lumbar
	{
		OFFSET 0.000000 0.000000 0.000000 
		CHANNELS 3 Zrotation Xrotation Yrotation
		JOINT Neck
		{
			OFFSET 0.000000 0.445665 0.000000 
			CHANNELS 3 Zrotation Xrotation Yrotation
			End Site
			{
				OFFSET 0.000000 0.227535 0.000000 
			}
		}
		JOINT RightShoulder
		{
			OFFSET 0.019635 0.377685 0.194865 
			CHANNELS 3 Zrotation Xrotation Yrotation
			JOINT RightElbow
			{
				OFFSET 0.000000 -0.243375 0.000000 
				CHANNELS 2 Zrotation Yrotation
				JOINT RightWrist
				{
					OFFSET 0.000000 -0.264825 0.000000 
					CHANNELS 2 Zrotation Xrotation
					End Site
					{
						OFFSET 0.006600 -0.176220 0.000990 
					}
				}
			}
		}
		JOINT LeftShoulder
		{
			OFFSET 0.019635 0.377685 -0.194865 
			CHANNELS 3 Zrotation Xrotation Yrotation
			JOINT LeftElbow
			{
				OFFSET 0.000000 -0.243375 0.000000 
				CHANNELS 2 Zrotation Yrotation
				JOINT LeftWrist
				{
					OFFSET 0.000000 -0.264825 0.000000 
					CHANNELS 2 Zrotation Xrotation
					End Site
					{
						OFFSET 0.006600 -0.176220 -0.000990 
					}
				}
			}
		}
	}
	JOINT RightHip
	{
		OFFSET 0.052140 -0.069960 0.075570 
		CHANNELS 3 Zrotation Xrotation Yrotation
		JOINT RightKnee
		{
			OFFSET 0.000000 -0.402270 0.000000 
			CHANNELS 1 Zrotation
			JOINT RightAnkle
			{
				OFFSET 0.000000 -0.404085 0.000000 
				CHANNELS 3 Zrotation Xrotation Yrotation
				End Site
				{
					OFFSET 0.204105 -0.089430 0.008415 
				}
			}
		}
	}
	JOINT LeftHip
	{
		OFFSET 0.052140 -0.069960 -0.075570 
		CHANNELS 3 Zrotation Xrotation Yrotation
		JOINT LeftKnee
		{
			OFFSET 0.000000 -0.402270 0.000000 
			CHANNELS 1 Zrotation
			JOINT LeftAnkle
			{
				OFFSET 0.000000 -0.404085 0.000000 
				CHANNELS 3 Zrotation Xrotation Yrotation
				End Site
				{
					OFFSET 0.204105 -0.089430 -0.008415 
				}
			}
		}
	}
}
MOTION
Frames: 17
Frame Time: 0.02
-0 0.95578 0 181.92098 0 -3.36338 5.85571 3.50165 -4.40354 -11.71778 8.15056 -0.80695 5.52145 -16.82664 10.19868 8.68301 88.3065 2.55987 3.83481 7.98344 0.58673 -7.97711 6.30112 -77.82815 -2.61356 -1.03038 -5.71529 8.35436 4.27114 -3.90709 2.89234 -3.97832 -5.64745 -3.87847 0.79501 -10.91939 -5.54851 7.14857 5.85799 7.2303
3e-05 0.95577 -0.00042 181.86513 0 -3.35645 5.92243 3.56181 -4.42261 -12.11844 7.86991 -0.92329 5.81045 -16.51378 9.38303 8.56401 88.25347 2.45453 3.79272 8.39916 0.89797 -7.88576 6.33066 -77.64765 -2.73339 -1.00048 -5.69848 8.36964 4.38052 -3.92877 2.8913 -4.06413 -5.71717 -3.87851 0.80591 -10.91832 -5.55655 7.15262 5.86844 7.27658
6e-05 0.95576 -0.00083 181.80947 0 -3.34946 5.98916 3.62199 -4.44178 -12.51912 7.58865 -1.04002 6.09921 -16.20014 8.56448 8.44455 88.19842 2.34876 3.75043 8.81486 1.21022 -7.79533 6.3604 -77.46804 -2.85259 -0.97078 -5.68173 8.38485 4.48901 -3.95033 2.89028 -4.14914 -5.78596 -3.8785 0.8168 -10.91749 -5.56463 7.15661 5.87894 7.32274
8e-05 0.95576 -0.00125 181.75418 0 -3.34236 6.05631 3.68251 -4.46171 -12.92235 7.30506 -1.1579 6.38934 -15.88356 7.7426 8.32357 88.14267 2.24226 3.70799 9.23325 1.52574 -7.70727 6.39047 -77.29014 -2.97016 -0.94189 -5.66516 8.3999 4.59421 -3.97164 2.8893 -4.23172 -5.85116 -3.87841 0.8278 -10.91768 -5.57284 7.16046 5.88978 7.36888
0.00011 0.95574 -0.00166 181.69714 0 -3.33608 6.12095 3.74084 -4.47783 -13.31031 7.03726 -1.26784 6.67164 -15.5865 6.95817 8.21245 88.10012 2.14202 3.66764 9.63587 1.81931 -7.60615 6.41786 -77.10308 -3.09601 -0.90903 -5.64774 8.41578 4.71587 -3.9943 2.88805 -4.32712 -5.93472 -3.87886 0.83827 -10.91254 -5.5802 7.16511 5.89887 7.41513
0.00014 0.95574 -0.0021 181.64372 0 -3.32791 6.191 3.80402 -4.50184 -13.73136 6.73397 -1.39573 6.9706 -15.24577 6.08183 8.07935 88.02323 2.02704 3.622 10.07247 2.16215 -7.53308 6.4515 -76.93564 -3.20449 -0.88441 -5.6321 8.4299 4.80327 -4.01405 2.88739 -4.39534 -5.97982 -3.87809 0.84983 -10.91863 -5.58947 7.16804 5.91162 7.46107
0.00015 0.95574 -0.00261 181.60045 0 -3.31531 6.27698 3.88064 -4.55035 -14.2488 6.33944 -1.56845 7.32186 -14.79214 5.02597 7.89042 87.90091 1.88023 3.56772 10.60929 2.63064 -7.53621 6.49914 -76.81939 -3.2641 -0.88445 -5.62135 8.43923 4.78931 -4.02646 2.88837 -4.38738 -5.91187 -3.87445 0.86475 -10.95771 -5.6036 7.1663 5.93556 7.50781
0.00016 0.95574 -0.00316 181.56085 0 -3.30062 6.36829 3.96235 -4.60629 -14.79897 5.90677 -1.76066 7.6887 -14.29204 3.85908 7.67853 87.73514 1.71685 3.5071 11.1793 3.15212 -7.5683 6.55393 -76.72345 -3.30643 -0.89255 -5.61242 8.44675 4.74191 -4.03583 2.88997 -4.3522 -5.80614 -3.8694 0.88068 -11.00802 -5.61993 7.16286 5.96307 7.55409
0.00018 0.95574 -0.0037 181.51935 0 -3.2864 6.45666 4.04168 -4.65728 -15.33196 5.48742 -1.94686 8.04537 -13.80814 2.6976 7.47329 87.55637 1.55496 3.44518 11.73138 3.65576 -7.58749 6.60738 -76.61991 -3.35733 -0.89563 -5.60266 8.45513 4.71431 -4.04617 2.89123 -4.33016 -5.72219 -3.86477 0.89598 -11.05168 -5.63531 7.16009 5.98825 7.59943
0.00018 0.95574 -0.0042 181.47853 0 -3.27434 6.54736 4.12083 -4.71532 -15.87593 5.08759 -2.11974 8.41695 -13.34691 1.74035 7.28263 87.514 1.41816 3.40018 12.29763 4.12974 -7.60395 6.65199 -76.50916 -3.40518 -0.9041 -5.59285 8.46353 4.66764 -4.05825 2.89261 -4.30477 -5.6193 -3.86142 0.91213 -11.10094 -5.64974 7.15755 6.01626 7.64917
0.00022 0.95574 -0.00478 181.43755 0 -3.25713 6.63429 4.20212 -4.7599 -16.40318 4.63486 -2.32658 8.75876 -12.82511 0.31386 7.05792 87.1795 1.22571 3.31936 12.83942 4.68214 -7.63502 6.71768 -76.41871 -3.45532 -0.90367 -5.58364 8.47123 4.65231 -4.06596 2.89402 -4.28 -5.54627 -3.85461 0.92655 -11.14237 -5.6676 7.15436 6.03941 7.69021
0.00034 0.95571 -0.00555 181.39208 0 -3.22743 6.71068 4.28387 -4.76928 -16.89011 4.07159 -2.60938 9.03527 -12.1673 -2.23215 6.72947 86.02918 0.8788 3.13237 13.32918 5.40469 -7.68102 6.83165 -76.37476 -3.51571 -0.87314 -5.57532 8.47935 4.73505 -4.06199 2.89396 -4.26251 -5.57001 -3.84188 0.93748 -11.15026 -5.68776 7.14815 6.04701 7.70291
0.00049 0.95567 -0.00639 181.34704 0 -3.1924 6.78267 4.36859 -4.76351 -17.35621 3.45104 -2.92836 9.27725 -11.44669 -5.27411 6.37034 84.59002 0.47743 2.91072 13.7881 6.21123 -7.7435 6.96824 -76.35108 -3.57917 -0.8341 -5.56776 8.48641 4.84961 -4.05346 2.89407 -4.24664 -5.62402 -3.82461 0.94612 -11.15205 -5.71349 7.14181 6.05003 7.70803
0.00062 0.95563 -0.0072 181.30365 0 -3.15903 6.85613 4.45447 -4.76297 -17.82319 2.84008 -3.23901 9.52172 -10.74146 -8.1872 6.03535 83.29616 0.10405 2.71124 14.24651 7.00044 -7.81129 7.09962 -76.32146 -3.64133 -0.80117 -5.55985 8.49281 4.94773 -4.04766 2.89512 -4.23089 -5.66104 -3.80786 0.95511 -11.16208 -5.73984 7.13646 6.0557 7.71915
0.00076 0.95559 -0.008 181.25198 0 -3.12883 6.9328 4.52914 -4.77225 -18.32885 2.29904 -3.51508 9.82324 -10.08908 -10.698 5.65672 81.94173 -0.28392 2.48627 14.77019 7.7009 -7.82871 7.20927 -76.27995 -3.70209 -0.75874 -5.55133 8.50428 5.05407 -4.0403 2.89226 -4.21112 -5.71098 -3.79956 0.96799 -11.14759 -5.74907 7.12653 6.05824 7.71816
0.00089 0.95555 -0.00882 181.21837 0 -3.09076 7.00066 4.62881 -4.75414 -18.74697 1.59695 -3.8728 9.99657 -9.31368 -14.16138 5.36172 80.64518 -0.65381 2.30396 15.14668 8.60875 -7.95125 7.3702 -76.26622 -3.76718 -0.73435 -5.54508 8.50457 5.14997 -4.03346 2.89714 -4.19978 -5.74094 -3.77008 0.97105 -11.18489 -5.80014 7.12688 6.06725 7.74222
0.00091 0.95553 -0.00969 181.22864 0 -3.03279 7.05356 4.78804 -4.6919 -18.94167 0.485 -4.43483 9.83215 -8.20434 -20.13974 5.30786 79.58283 -0.96374 2.26798 15.15405 10.03898 -8.38671 7.6603 -76.33652 -3.84039 -0.75853 -5.53759 8.47784 5.22232 -4.04418 2.92712 -4.21791 -5.71714 -3.70325 0.95692 -11.34825 -5.92646 7.14935 6.08591 7.82427
